HIERARCHY
ROOT Hips
{
  OFFSET 0.0 0.0 0.0
  CHANNELS 6 Xposition Yposition Zposition Zrotation Yrotation Xrotation
  JOINT LHipJoint
  {
    OFFSET 0.0 0.0 0.0
    CHANNELS 3 Zrotation Yrotation Xrotation
    JOINT LeftUpLeg
    {
      OFFSET 1.363059998 -1.794630051 0.839290023
      CHANNELS 3 Zrotation Yrotation Xrotation
      JOINT LeftLeg
      {
        OFFSET 2.448110104 -6.726130009 0.0
        CHANNELS 3 Zrotation Yrotation Xrotation
        JOINT LeftFoot
        {
          OFFSET 2.562200069 -7.039589882 0.0
          CHANNELS 3 Zrotation Yrotation Xrotation
          JOINT LeftToeBase
          {
            OFFSET 0.157639995 -0.433109999 2.322550058
            CHANNELS 3 Zrotation Yrotation Xrotation
            End Site
            {
              OFFSET 0.0 -0.0 1.189659953
            }
          }
        }
      }
    }
  }
  JOINT RHipJoint
  {
    OFFSET 0.0 0.0 0.0
    CHANNELS 3 Zrotation Yrotation Xrotation
    JOINT RightUpLeg
    {
      OFFSET -1.305520058 -1.794630051 0.839290023
      CHANNELS 3 Zrotation Yrotation Xrotation
      JOINT RightLeg
      {
        OFFSET -2.54253006 -6.985549927 0.0
        CHANNELS 3 Zrotation Yrotation Xrotation
        JOINT RightFoot
        {
          OFFSET -2.568259954 -7.056230068 0.0
          CHANNELS 3 Zrotation Yrotation Xrotation
          JOINT RightToeBase
          {
            OFFSET -0.164729998 -0.452589989 2.363149881
            CHANNELS 3 Zrotation Yrotation Xrotation
            End Site
            {
              OFFSET -0.0 -0.0 1.21081996
            }
          }
        }
      }
    }
  }
  JOINT LowerBack
  {
    OFFSET 0.0 0.0 0.0
    CHANNELS 3 Zrotation Yrotation Xrotation
    JOINT Spine
    {
      OFFSET 0.028270001 2.035589933 -0.193379998
      CHANNELS 3 Zrotation Yrotation Xrotation
      JOINT Spine1
      {
        OFFSET 0.05672 2.04885006 -0.042750001
        CHANNELS 3 Zrotation Yrotation Xrotation
        JOINT Neck
        {
          OFFSET 0.0 0.0 0.0
          CHANNELS 3 Zrotation Yrotation Xrotation
          JOINT Neck1
          {
            OFFSET -0.054170001 1.74624002 0.172020003
            CHANNELS 3 Zrotation Yrotation Xrotation
            JOINT Head
            {
              OFFSET 0.10407 1.761360049 -0.123970002
              CHANNELS 3 Zrotation Yrotation Xrotation
              End Site
              {
                OFFSET 0.0372 1.770439982 -0.062410001
              }
            }
          }
        }
        JOINT LeftShoulder
        {
          OFFSET 0.0 0.0 0.0
          CHANNELS 3 Zrotation Yrotation Xrotation
          JOINT LeftArm
          {
            OFFSET 3.362410069 1.200889945 -0.311210006
            CHANNELS 3 Zrotation Yrotation Xrotation
            JOINT LeftForeArm
            {
              OFFSET 4.982999802 -0.0 -0.0
              CHANNELS 3 Zrotation Yrotation Xrotation
              JOINT LeftHand
              {
                OFFSET 3.483560085 -0.0 -0.0
                CHANNELS 3 Zrotation Yrotation Xrotation
                JOINT LeftFingerBase
                {
                  OFFSET 0.0 0.0 0.0
                  CHANNELS 3 Zrotation Yrotation Xrotation
                  JOINT LeftHandIndex1
                  {
                    OFFSET 0.715260029 -0.0 -0.0
                    CHANNELS 3 Zrotation Yrotation Xrotation
                    End Site
                    {
                      OFFSET 0.576659977 -0.0 -0.0
                    }
                  }
                }
                JOINT LThumb
                {
                  OFFSET 0.0 0.0 0.0
                  CHANNELS 3 Zrotation Yrotation Xrotation
                  End Site
                  {
                    OFFSET 0.585470021 -0.0 0.585470021
                  }
                }
              }
            }
          }
        }
        JOINT RightShoulder
        {
          OFFSET 0.0 0.0 0.0
          CHANNELS 3 Zrotation Yrotation Xrotation
          JOINT RightArm
          {
            OFFSET -3.136600018 1.374050021 -0.404650003
            CHANNELS 3 Zrotation Yrotation Xrotation
            JOINT RightForeArm
            {
              OFFSET -5.241899967 -0.0 -0.0
              CHANNELS 3 Zrotation Yrotation Xrotation
              JOINT RightHand
              {
                OFFSET -3.444169998 -0.0 -0.0
                CHANNELS 3 Zrotation Yrotation Xrotation
                JOINT RightFingerBase
                {
                  OFFSET 0.0 0.0 0.0
                  CHANNELS 3 Zrotation Yrotation Xrotation
                  JOINT RightHandIndex1
                  {
                    OFFSET -0.622529984 -0.0 -0.0
                    CHANNELS 3 Zrotation Yrotation Xrotation
                    End Site
                    {
                      OFFSET -0.501900017 -0.0 -0.0
                    }
                  }
                }
                JOINT RThumb
                {
                  OFFSET 0.0 0.0 0.0
                  CHANNELS 3 Zrotation Yrotation Xrotation
                  End Site
                  {
                    OFFSET -0.509559989 -0.0 0.509559989
                  }
                }
              }
            }
          }
        }
      }
    }
  }
}
MOTION
Frames: 8
Frame Time: 0.0083333
0.0 27.688199997 0.0 -9.257300377 -48.340900421 -6.841000557 0.0 -0.0 0.0 12.432528496 2.053598881 -91.59400177 31.375509262 16.559911728 125.217788696 -0.566299975 -13.458200455 2.133199453 0.052499991 -1.478099704 -4.065300465 0.0 -0.0 0.0 29.564901352 5.841301441 20.929401398 -0.165999994 -2.625 7.236400127 -1.14890039 5.938399792 23.204801559 -2.922399998 -10.568300247 30.837497711 14.656300545 11.53840065 37.298995972 -11.521197319 18.870492935 2.223800182 -28.23459816 8.80150032 -7.706299305 39.33190918 -6.645900726 5.44920063 -7.537299156 -7.619699478 23.976600647 -8.68710041 -0.984599948 5.483800888 0.0 -0.0 0.0 -27.404397964 -9.503697395 63.172592163 27.693397522 -38.83240509 -9.930798531 0.0 -0.0 3.314200163 54.017707825 -25.033397675 -30.233207703 -7.125 0.0 0.0 14.0184021 -7.492600441 -16.188804626 0.0 -0.0 0.0 13.869503021 39.87040329 -31.918891907 -80.765197754 59.675308228 -52.011112213 0.0 -0.0 2.744799614 -48.773891449 -18.328395844 19.741998672 7.125 -0.0 0.0 -22.897293091 -55.16178894 5.941894531 
0.022098541 27.720399857 0.07159996 -8.201601982 -48.374912262 -7.413998604 0.0 -0.0 0.0 11.945999146 1.839813232 -92.200889587 31.2155056 16.66711235 124.658004761 -0.540800035 -13.196600914 1.898000121 0.066999994 -1.669599891 -4.593299866 0.0 -0.0 0.0 28.471998215 6.199198246 20.58380127 -0.186300054 -2.78000021 7.666900158 -1.283500195 4.868900299 23.658901215 -3.122100592 -10.890199661 31.910394669 14.347500801 11.673397064 36.602798462 -11.72509861 18.856708527 2.08719945 -28.215499878 8.819601059 -7.62019968 39.192802429 -7.227700233 7.097401619 -7.108299255 -7.647301674 23.192495346 -8.403899193 -1.070099831 5.011798859 0.0 -0.0 0.0 -27.645101547 -8.72539711 63.469902039 27.420404434 -38.577201843 -9.760102272 0.0 -0.0 4.856999874 55.537986755 -25.394197464 -31.999498367 -7.125 0.0 0.0 14.727602005 -8.862801552 -17.3601017 0.0 -0.0 0.0 15.220697403 39.270206451 -30.74981308 -82.73122406 59.79940033 -53.709228516 0.0 -0.0 1.868700027 -48.320194244 -18.324399948 19.449203491 7.125 -0.0 0.0 -22.322704315 -55.028408051 5.70730114 
0.041498184 27.727899551 0.134699821 -8.607795715 -49.026901245 -7.30600071 0.0 -0.0 0.0 12.729519844 2.864198923 -92.618797302 31.099712372 16.743093491 124.255516052 -0.566199958 -13.331399918 2.871200085 0.012800001 -0.730499923 -2.007699966 0.0 -0.0 0.0 28.708097458 6.717202663 20.79990387 -0.202999994 -2.901200294 8.003700256 -1.334400415 4.324800014 23.762500763 -2.94149971 -10.599699974 30.941596985 14.425699234 11.901298523 36.067493439 -11.455000877 19.145904541 2.513600349 -27.656299591 9.146099091 -6.825998783 38.389293671 -7.099196911 6.983198166 -6.2687006 -7.652600288 22.568601608 -7.976698875 -1.165500402 4.88119936 0.0 -0.0 0.0 -28.640903473 -8.823002815 62.467700958 27.120498657 -38.293899536 -9.57369709 0.0 -0.0 5.932700157 56.375400543 -25.486001968 -32.904396057 -7.125 0.0 0.0 15.146697998 -9.506098747 -18.028501511 0.0 -0.0 0.0 14.896199226 38.991298676 -31.171405792 -84.191581726 59.872108459 -54.971885681 0.0 -0.0 0.636500001 -47.050201416 -18.75689888 19.056499481 7.125 -0.0 0.0 -20.872703552 -55.228298187 5.414503098 
0.058300018 27.75909996 0.215199947 -7.289500713 -49.954502106 -8.647010803 0.0 -0.0 0.0 12.235013008 3.931571722 -92.330307007 30.972097397 16.825605392 123.813598633 -0.569299877 -13.318697929 3.25619936 0.0008 -0.177600011 -0.487999946 0.0 -0.0 0.0 27.743400574 7.594700813 21.368398666 -0.222400025 -3.036000013 8.378998756 -1.323699951 4.739499569 23.906099319 -2.63820076 -10.08490181 29.25220108 13.560599327 12.558301926 35.832698822 -11.481301308 19.575201035 2.91299963 -27.099103928 9.4997015 -6.317900658 38.825298309 -7.12349987 6.731499672 -7.092298985 -7.672301292 22.893003464 -8.349101067 -1.149499893 4.949900627 0.0 -0.0 0.0 -29.663005829 -9.206400871 61.752384186 26.711395264 -37.902591705 -9.321294785 0.0 -0.0 6.322501183 57.570789337 -25.954305649 -34.561294556 -7.125 0.0 0.0 15.638001442 -10.889902115 -18.959104538 0.0 -0.0 0.0 15.227698326 38.519096375 -31.643901825 -86.258010864 59.946994781 -56.759899139 0.0 -0.0 0.0396 -43.350406647 -20.438903809 18.245201111 7.125 -0.0 0.0 -16.672698975 -56.327705383 4.723497391 
0.080499649 27.785100937 0.311599731 -6.240498543 -50.323692322 -9.778003693 0.0 -0.0 0.0 11.932038307 4.34900856 -92.213493347 30.853982925 16.90080452 123.406288147 -0.593500078 -13.569400787 3.542300463 0.0029 -0.349300027 -0.959800065 0.0 -0.0 0.0 26.810302734 7.953398705 21.801101685 -0.234400004 -3.116200209 8.602398872 -1.402199864 4.450000286 24.362600327 -2.642699957 -10.09290123 29.277999878 13.456003189 12.869000435 35.12040329 -11.513300896 19.861005783 3.500601053 -26.773996353 9.894701004 -5.242900372 38.774398804 -7.172700405 6.501800537 -6.674500942 -7.876599789 22.540599823 -8.173899651 -1.273799777 4.860399723 0.0 -0.0 0.0 -30.572702408 -10.061700821 61.47220993 26.078004837 -37.285598755 -8.934904099 0.0 -0.0 5.925300121 59.024902344 -26.516101837 -36.639904022 -7.125 0.0 0.0 16.229602814 -12.61380291 -20.105806351 0.0 -0.0 0.0 15.382994652 38.778400421 -32.111408234 -86.761604309 59.960296631 -57.195804596 0.0 0.0 -1.398400187 -45.462001801 -17.958995819 17.398395538 7.125 -0.0 0.0 -18.732000351 -53.793083191 4.162599087 
0.110898972 27.790599823 0.404500008 -6.408196926 -50.243396759 -9.996001244 0.0 -0.0 0.0 12.503409386 4.35540247 -92.552398682 30.761611938 16.958702087 123.088996887 -0.617799878 -13.792800903 4.166099548 0.010800001 -0.670900047 -1.843699932 0.0 -0.0 0.0 26.625902176 7.724102974 22.124002457 -0.244599983 -3.182399988 8.787099838 -1.481899858 4.137899399 24.807901382 -2.773099661 -10.318400383 30.013999939 14.078403473 12.737599373 35.288703918 -11.53209877 20.003900528 3.074999809 -27.299402237 9.893801689 -5.519800186 39.361904144 -7.842200279 7.746801376 -6.652999878 -8.160202026 22.582302094 -8.174899101 -1.356400132 4.655100346 0.0 -0.0 0.0 -31.020401001 -9.987701416 62.539611816 25.350898743 -36.560497284 -8.49809742 0.0 -0.0 5.711900234 60.457393646 -27.062696457 -38.755996704 -7.125 0.0 0.0 16.807598114 -14.357498169 -21.250097275 0.0 -0.0 0.0 16.258600235 39.987407684 -31.554203033 -85.172775269 59.91178894 -55.820682526 0.0 0.0 -0.586799979 -49.012504578 -15.905404091 17.505104065 7.125 -0.0 0.0 -22.309196472 -52.060199738 4.043702126 
0.144699097 27.8022995 0.477699757 -6.913202286 -50.270103455 -9.750001907 0.0 -0.0 0.0 13.343774796 4.537723541 -93.150894165 30.637804031 17.035203934 122.66570282 -0.631799996 -13.915102005 5.102500916 0.017000003 -0.842400014 -2.315300226 0.0 -0.0 0.0 26.697599411 7.698801517 22.112602234 -0.258999944 -3.274199724 9.04309845 -1.697199941 2.113500357 25.454097748 -3.365400553 -11.264401436 33.176700592 14.733304024 12.649101257 35.910003662 -11.628797531 20.302099228 1.958199501 -28.283000946 9.745201111 -6.652700424 39.646297455 -9.248001099 11.186300278 -6.04999876 -8.367399216 21.475997925 -7.783198833 -1.524299622 3.843398809 0.0 -0.0 0.0 -31.266597748 -9.318501472 64.002204895 24.50069809 -35.689296722 -7.996801853 0.0 -0.0 6.492198944 61.982696533 -27.630802155 -41.075199127 -7.125 0.0 0.0 17.422203064 -16.254102707 -22.483707428 0.0 -0.0 0.0 20.257608414 37.618816376 -28.379009247 -88.603790283 59.992607117 -58.79088974 0.0 0.0 -1.386100054 -50.797206879 -15.72769928 18.38310051 7.125 -0.0 0.0 -24.359903336 -52.305603027 4.604005814 
0.179998398 27.825799942 0.531699657 -7.417001724 -50.284095764 -9.19602108 0.0 -0.0 0.0 14.199194908 4.725780487 -93.937507629 30.460100174 17.14289856 122.060905457 -0.657000005 -14.215702057 6.32529974 0.031099992 -1.137899756 -3.128199816 0.0 -0.0 0.0 26.806903839 7.85589838 21.59349823 -0.276100069 -3.37989974 9.338301659 -1.774299741 2.243699551 26.059900284 -3.008300066 -10.708499908 31.302904129 15.488100052 12.667499542 35.001594543 -11.54750061 20.551700592 2.516199827 -28.178606033 10.186497688 -5.292300224 40.750297546 -8.426999092 8.195197105 -7.557600021 -8.601700783 24.140903473 -8.708397865 -1.315600038 4.97139883 0.0 -0.0 0.0 -32.053199768 -10.598402023 63.493911743 23.77869606 -34.929397583 -7.579497814 0.0 -0.0 7.039500237 63.19430542 -28.060998917 -42.954299927 -7.125 0.0 0.0 17.915302277 -17.775499344 -23.476903915 0.0 -0.0 0.0 19.788297653 38.720783234 -29.628896713 -86.851211548 59.962497711 -57.273406982 0.0 0.0 -0.232600018 -50.503894806 -15.804497719 18.28560257 7.125 -0.0 0.0 -24.039901733 -52.327602386 4.550802708 
